<svg xmlns="http://www.w3.org/2000/svg" viewBox="0 0 512 512">
  <defs>
    <linearGradient id="bg" x1="0" y1="0" x2="1" y2="1">
      <stop offset="0%" stop-color="#efe6d8"/>
      <stop offset="100%" stop-color="#e8dcc9"/>
    </linearGradient>
    <linearGradient id="coffee" x1="0" y1="0" x2="1" y2="0">
      <stop offset="0%" stop-color="#5a210d"/>
      <stop offset="100%" stop-color="#3f1407"/>
    </linearGradient>
  </defs>

  <rect x="14" y="14" width="484" height="484" rx="74" fill="url(#bg)"/>

  <g stroke="#4a1a0a" fill="none" stroke-linecap="round" stroke-linejoin="round">
    <path d="M166 133h180" stroke-width="6"/>
    <path d="M166 133l56 97h68l56-97" stroke-width="7"/>
    <path d="M205 152c9 30 18 52 29 70" stroke-width="4"/>
    <path d="M256 150v79" stroke-width="4"/>
    <path d="M307 152c-9 30-18 52-29 70" stroke-width="4"/>
    <ellipse cx="256" cy="246" rx="82" ry="17" stroke-width="7"/>
    <path d="M184 292h144l8 30" stroke-width="7"/>
    <path d="M176 324c0 30 12 44 46 44h68c34 0 46-14 46-44" stroke-width="7"/>
    <path d="M170 302c-17 0-30 15-30 34s13 35 30 35" stroke-width="7"/>
    <path d="M146 413h66l14-16 10 31 14-33 14 18 13-11h87" stroke-width="7"/>
  </g>

  <path d="M188 312h136v16c0 19-11 28-36 28h-64c-25 0-36-9-36-28z" fill="url(#coffee)" opacity="0.95"/>
  <ellipse cx="256" cy="312" rx="68" ry="10" fill="#cf9a73" opacity="0.85"/>
</svg>
